<svg xmlns="http://www.w3.org/2000/svg" version="1.1" xmlns:xlink="http://www.w3.org/1999/xlink" width="155" height="97"><svg xmlns="http://www.w3.org/2000/svg" version="1.1" xmlns:xlink="http://www.w3.org/1999/xlink" width="155" height="97"><svg width="155" height="97" viewBox="0 0 155 97" fill="none" xmlns="http://www.w3.org/2000/svg">
<path d="M65.1106 52.2288C58.3514 39.2248 51.6822 26.3377 44.9437 13.4868C44.1971 12.063 44.1255 10.9222 44.9383 9.51306C46.4329 6.92192 47.7938 4.25043 49.1256 1.57028C49.6626 0.48954 50.3969 0.0969127 51.5776 0.0593022C57.7147 -0.136189 57.7207 -0.163595 60.5509 5.26382C73.1564 29.4379 85.7672 53.6093 98.3343 77.8034C99.0186 79.1209 99.7716 79.6996 101.32 79.6835C109.196 79.6013 117.073 79.6711 124.949 79.6319C131.657 79.5986 136.206 76.0557 137.55 69.9196C138.995 63.3235 133.663 56.2521 126.923 56.1242C119.115 55.9761 111.301 56.1114 103.49 56.0558C101.961 56.0449 101.627 56.727 101.641 58.0736C101.693 63.4761 101.689 68.8792 101.676 74.282C101.674 74.9588 101.944 75.6991 101.412 76.3488C100.526 76.3219 100.478 75.5237 100.209 75.0117C95.2184 65.5056 90.2626 55.9812 85.266 46.4782C84.6114 45.2332 84.3065 43.9874 84.3102 42.5724C84.3451 29.2279 84.3616 15.8832 84.2963 2.539C84.2874 0.70128 84.7907 0.0405031 86.702 0.0513152C98.9395 0.120528 111.178 0.000830251 123.415 0.106306C139.534 0.245221 151.625 12.5685 151.339 28.5137C151.234 34.3653 149.126 39.5529 145.51 44.142C144.996 44.7933 144.29 45.3223 144.078 46.1372C144.174 46.6952 144.579 46.9381 144.922 47.2284C153.233 54.2534 156.407 63.3087 154.281 73.7881C152.082 84.6216 145.199 91.6906 134.596 94.9667C131.544 95.9097 128.378 96.3045 125.166 96.3002C113.449 96.2845 101.731 96.2661 90.0145 96.3314C88.4766 96.34 87.7026 95.7971 87.0171 94.4669C79.7733 80.4119 72.4683 66.3884 65.1106 52.2288ZM133.925 30.561C135.242 22.6523 130.365 16.8097 122.22 16.6891C116.109 16.5986 109.994 16.7161 103.883 16.6369C102.17 16.6147 101.629 17.1997 101.649 18.8958C101.721 25.0075 101.71 31.1214 101.622 37.2329C101.597 38.9404 102.159 39.4869 103.867 39.4625C109.914 39.3764 115.962 39.4358 122.01 39.4254C127.934 39.4151 131.975 36.4881 133.925 30.561Z" fill="#9fd4ff"></path>
<path d="M47.6509 35.3821C47.9281 35.9153 48.0867 36.3563 48.3513 36.72C49.5238 38.3315 49.3801 39.8036 48.4064 41.5576C45.5345 46.7309 42.8212 51.9937 40.1202 57.2597C39.4142 58.6361 38.5557 59.2456 36.9382 59.2122C31.8651 59.1077 26.7886 59.1741 21.7134 59.1667C21.0741 59.1658 20.4128 59.259 19.472 58.6889C26.1058 46.014 32.7382 33.3417 39.5764 20.2761C42.6544 25.3403 44.9075 30.4141 47.6509 35.3821Z" fill="#9fd4ff"></path>
<path d="M27.0816 82.1535C24.8334 86.4239 22.6476 90.5667 20.4713 94.7146C20.039 95.5386 19.6363 96.3078 18.4921 96.3018C12.6997 96.2716 6.90721 96.2804 1.11479 96.2621C0.874746 96.2613 0.635123 96.1263 0 95.9343C6.03828 84.3865 12.0105 72.965 17.9556 61.5953C18.9782 61.7647 19.146 62.4545 19.4325 63.003C22.0234 67.9624 24.5569 72.9523 27.2079 77.8792C28.0033 79.3574 28.1861 80.658 27.0816 82.1535Z" fill="#9fd4ff"></path>
<path d="M62.9849 77.1871C51.8947 77.1872 40.9996 77.1872 30.2357 77.1872C29.9024 76.3757 30.1896 75.9938 30.3964 75.595C32.6119 71.3245 34.8542 67.0676 37.0254 62.7748C37.56 61.718 38.2199 61.2597 39.439 61.2529C46.1357 61.2156 52.8364 61.4794 59.5282 61.0634C61.0068 60.9714 61.8896 61.5096 62.5694 62.8952C64.5445 66.9213 66.6814 70.8679 68.7459 74.8502C69.0684 75.4722 69.52 76.0682 69.2724 77.1869C67.2801 77.1869 65.23 77.1869 62.9849 77.1871Z" fill="#9fd4ff"></path>
</svg></svg><style>@media (prefers-color-scheme: light) { :root { filter: none; } }
@media (prefers-color-scheme: dark) { :root { filter: none; } }
</style></svg>